<?xml version="1.0" encoding="UTF-8" standalone="no"?>
<!DOCTYPE svg PUBLIC "-//W3C//DTD SVG 1.1//EN" "http://www.w3.org/Graphics/SVG/1.1/DTD/svg11.dtd">
<svg width="100%" height="100%" viewBox="0 0 113 138" version="1.1" xmlns="http://www.w3.org/2000/svg" xmlns:xlink="http://www.w3.org/1999/xlink" xml:space="preserve" xmlns:serif="http://www.serif.com/" style="fill-rule:evenodd;clip-rule:evenodd;stroke-linejoin:round;stroke-miterlimit:2;">
    <g transform="matrix(1,0,0,1,-116.672,-854.547)">
        <g id="Layer2">
            <path d="M137.505,854.547L208.338,854.547L209.409,854.576C220.417,855.135 229.172,864.235 229.172,875.38L229.172,971.214L229.142,972.285C228.605,982.939 220.063,991.48 209.409,992.018L208.338,992.047L137.505,992.047L136.434,992.018C125.78,991.48 117.238,982.939 116.701,972.285L116.672,971.214L116.672,875.38C116.672,864.235 125.426,855.135 136.434,854.576L137.505,854.547ZM139.588,969.13L206.255,969.13L206.255,877.464L139.588,877.464L139.588,969.13Z" style="fill:rgb(221,240,255);fill-opacity:0.3;"/>
        </g>
    </g>
</svg>
