<?xml version="1.0" encoding="UTF-8" standalone="no"?>
<!DOCTYPE svg PUBLIC "-//W3C//DTD SVG 1.1//EN" "http://www.w3.org/Graphics/SVG/1.1/DTD/svg11.dtd">
<svg width="100%" height="100%" viewBox="0 0 90 138" version="1.1" xmlns="http://www.w3.org/2000/svg" xmlns:xlink="http://www.w3.org/1999/xlink" xml:space="preserve" xmlns:serif="http://www.serif.com/" style="fill-rule:evenodd;clip-rule:evenodd;stroke-linejoin:round;stroke-miterlimit:2;">
    <g transform="matrix(1,0,0,1,-129.165,-1958.72)">
        <path d="M185.415,2073.3L207.29,2073.3C213.619,2073.3 218.748,2078.43 218.748,2084.76C218.748,2091.09 213.619,2096.22 207.29,2096.22L140.623,2096.22C134.294,2096.22 129.165,2091.09 129.165,2084.76C129.165,2078.43 134.294,2073.3 140.623,2073.3L162.498,2073.3L162.498,1981.63L140.623,1981.63C134.294,1981.63 129.165,1976.5 129.165,1970.17C129.165,1963.85 134.294,1958.72 140.623,1958.72L165.623,1958.72C176.552,1958.72 185.415,1967.58 185.415,1978.51L185.415,2073.3Z" style="fill:white;"/>
    </g>
</svg>
